<svg width="114" height="114" viewBox="0 0 114 114" fill="none" xmlns="http://www.w3.org/2000/svg">
<circle cx="57" cy="57" r="56.5" stroke="#D1D1D1"/>
<ellipse rx="26.4276" ry="13.1919" transform="matrix(0.994399 -0.105694 0.116378 0.993205 55.6454 69.5173)" fill="#7EC95C"/>
<path d="M36.5923 48.2525H37.6948C37.6872 48.3101 37.6822 48.3684 37.6822 48.428V69.8953H36.9329C36.1786 69.8953 35.5667 70.5071 35.5667 71.2614C35.5667 72.0158 36.1786 72.6276 36.9329 72.6276H39.0484H44.2336H49.4191H54.6045H59.7898H64.9752H70.1607H75.3459H77.4614C78.2157 72.6276 78.8275 72.0158 78.8275 71.2614C78.8275 70.5071 78.2157 69.8953 77.4614 69.8953H76.7121V48.428C76.7121 48.3684 76.707 48.3101 76.6995 48.2525H77.802C78.8314 48.2525 79.7399 47.5956 80.0623 46.6179C80.3847 45.6402 80.0452 44.5718 79.2176 43.9593L58.0099 28.2679C57.5274 27.9107 56.8673 27.9107 56.3849 28.2679L35.1765 43.9593C34.3491 44.5716 34.0096 45.6402 34.332 46.6179C34.6544 47.5956 35.5627 48.2525 36.5923 48.2525ZM58.4238 69.8953H55.9709V48.428C55.9709 48.3684 55.9659 48.3101 55.9584 48.2525H58.4366C58.4291 48.3101 58.4241 48.3684 58.4241 48.428V69.8953H58.4238ZM48.0529 69.8953H45.5995V48.428C45.5995 48.3684 45.5945 48.3101 45.587 48.2525H48.0654C48.0579 48.3101 48.0529 48.3684 48.0529 48.428V69.8953ZM40.4143 69.8953V49.7942H42.8672V69.8953H40.4143ZM50.7852 69.8953V49.7942H53.2384V69.8953H50.7852ZM61.1559 69.8953V49.7942H63.6091V69.8953H61.1559ZM71.5271 69.8953V49.7942H73.98V69.8953H71.5271ZM68.7947 48.428V69.8953H66.3416V48.428C66.3416 48.3684 66.3366 48.3101 66.3291 48.2525H68.8075C68.8 48.3101 68.7947 48.3684 68.7947 48.428ZM57.1973 31.0656L76.7337 45.5199H37.6608L57.1973 31.0656Z" fill="#675A54"/>
<path d="M80.0286 74.2676H34.3662C33.6118 74.2676 33 74.8794 33 75.6337C33 76.3881 33.6118 76.9999 34.3662 76.9999H80.0286C80.783 76.9999 81.3948 76.3881 81.3948 75.6337C81.3948 74.8794 80.7832 74.2676 80.0286 74.2676Z" fill="#675A54"/>
</svg>
