<svg width="114" height="114" viewBox="0 0 114 114" fill="none" xmlns="http://www.w3.org/2000/svg">
<circle cx="57" cy="57" r="56.5" stroke="#D1D1D1"/>
<ellipse cx="50.0024" cy="65.2711" rx="19.0748" ry="19.7035" transform="rotate(-27.3997 50.0024 65.2711)" fill="#7EC95C"/>
<path fill-rule="evenodd" clip-rule="evenodd" d="M77.8958 43.2505H39.1041C36.2907 43.2505 34 45.4873 34 48.2344V70.1636C34 72.9107 36.2907 75.1475 39.1041 75.1475H77.8957C80.7091 75.1475 82.9999 72.9107 82.9999 70.1636V48.2344C83 45.4873 80.7092 43.2505 77.8958 43.2505ZM80.9583 70.1635C80.9583 71.8122 79.5843 73.1538 77.8958 73.1538H39.1041C37.4156 73.1538 36.0416 71.8122 36.0416 70.1635V52.5005H80.9582V70.1635H80.9583ZM80.9582 50.5869H36.0416V48.2344C36.0416 46.5857 37.4156 45.2441 39.1041 45.2441H77.8957C79.5842 45.2441 80.9582 46.5857 80.9582 48.2344V50.5869ZM71.7709 61.1926H73.8125C75.501 61.1926 76.875 62.5343 76.875 64.1829V66.1764C76.875 67.8251 75.501 69.1667 73.8125 69.1667H71.7709C70.0824 69.1667 68.7084 67.8251 68.7084 66.1764V64.1829C68.7084 62.5342 70.0824 61.1926 71.7709 61.1926ZM73.8125 67.1733C74.376 67.1733 74.8334 66.7268 74.8334 66.1765V64.183C74.8334 63.6328 74.376 63.1862 73.8125 63.1862H71.7709C71.2074 63.1862 70.75 63.6328 70.75 64.183V66.1765C70.75 66.7268 71.2074 67.1733 71.7709 67.1733H73.8125ZM41.1459 67.1733H53.3959C53.9594 67.1733 54.4167 67.6199 54.4167 68.17C54.4167 68.7202 53.9594 69.1667 53.3959 69.1667H41.1459C40.5824 69.1667 40.125 68.7202 40.125 68.17C40.125 67.6199 40.5824 67.1733 41.1459 67.1733Z" fill="#675A54"/>
</svg>
