<svg width="193" height="177" viewBox="0 0 193 177" fill="none" xmlns="http://www.w3.org/2000/svg">
<circle cx="83" cy="94" r="83" fill="#7EC95C"/>
<path fill-rule="evenodd" clip-rule="evenodd" d="M112.375 6.86727C154.506 8.70367 187.456 43.8767 186.613 86.0761C186.613 86.0762 186.613 86.0763 186.613 86.0763C186.612 86.122 186.611 86.1677 186.61 86.2133C185.692 128.464 151.232 162.236 109.03 162.253C109.02 162.253 109.01 162.253 109 162.253C108.99 162.253 108.98 162.253 108.97 162.253C66.7696 162.236 32.3095 128.464 31.3917 86.2133C31.3907 86.1676 31.3898 86.1218 31.3889 86.0761C30.5452 43.8766 63.4962 8.70354 105.625 6.86726C105.728 6.86726 105.828 6.8672 105.926 6.8671C105.926 6.8671 105.926 6.8671 105.926 6.8671C109.285 6.86368 109.49 6.8027 109.7 6.7792C109.875 6.75957 110.053 6.76609 112.074 6.85415C112.17 6.85833 112.271 6.8627 112.375 6.86726C112.375 6.86726 112.375 6.86726 112.375 6.86727ZM192.98 86.3517C191.988 132.129 154.747 168.794 109 169C63.2544 168.794 26.0139 132.129 25.0203 86.3517C25.0192 86.3023 25.0182 86.2529 25.0172 86.2034C24.1029 40.4554 59.7212 2.31163 105.331 0.121834C105.429 0.117131 105.527 0.112594 105.625 0.108222C109.392 -0.0596807 110.309 0.00396773 111.111 0.0596719C111.472 0.0847632 111.81 0.108243 112.375 0.108222C112.473 0.112593 112.571 0.117131 112.669 0.121833C158.279 2.31162 193.897 40.4554 192.983 86.2034C192.982 86.2529 192.981 86.3023 192.98 86.3517Z" fill="#675A54"/>
<path d="M140.224 78.7615H124.624V75.9701C124.624 72.6782 121.946 70 118.654 70H99.346C96.0544 70 93.3762 72.678 93.3762 75.9701V78.7615H77.7764C74.5913 78.7615 72 81.3525 72 84.5374V125.161C72 128.346 74.5913 130.938 77.7764 130.938H140.224C143.409 130.938 146 128.346 146 125.161V84.5374C146 81.3528 143.409 78.7615 140.224 78.7615ZM98.4209 75.9701C98.4209 75.4598 98.8361 75.0445 99.3462 75.0445H118.654C119.164 75.0445 119.58 75.4598 119.58 75.9701V78.7615H98.4209V75.9701ZM77.7766 83.806H140.224C140.627 83.806 140.956 84.1341 140.956 84.5374V97.7738C133.139 100.673 121.349 102.386 108.979 102.386C96.6359 102.386 84.8619 100.679 77.0445 97.7893V84.5374C77.0447 84.1341 77.373 83.806 77.7766 83.806ZM140.224 125.893H77.7766C77.373 125.893 77.0447 125.565 77.0447 125.161V103.134C84.1994 105.494 93.6062 106.969 103.858 107.339C103.857 107.368 103.853 107.396 103.853 107.426V108.538C103.853 110.624 105.55 112.32 107.636 112.32H110.365C112.451 112.32 114.147 110.624 114.147 108.538V107.426C114.147 107.396 114.143 107.367 114.143 107.338C124.401 106.965 133.806 105.485 140.956 103.12V125.162C140.956 125.565 140.627 125.893 140.224 125.893Z" fill="#675A54"/>
</svg>
