<svg width="193" height="177" viewBox="0 0 193 177" fill="none" xmlns="http://www.w3.org/2000/svg">
<circle cx="83" cy="94" r="83" fill="#7EC95C"/>
<path fill-rule="evenodd" clip-rule="evenodd" d="M112.375 6.86727C154.506 8.70367 187.456 43.8767 186.613 86.0761C186.613 86.0762 186.613 86.0763 186.613 86.0763C186.612 86.122 186.611 86.1677 186.61 86.2133C185.692 128.464 151.232 162.236 109.03 162.253C109.02 162.253 109.01 162.253 109 162.253C108.99 162.253 108.98 162.253 108.97 162.253C66.7696 162.236 32.3095 128.464 31.3917 86.2133C31.3907 86.1676 31.3898 86.1218 31.3889 86.0761C30.5452 43.8766 63.4962 8.70354 105.625 6.86726C105.728 6.86726 105.828 6.8672 105.926 6.8671C105.926 6.8671 105.926 6.8671 105.926 6.8671C109.285 6.86368 109.49 6.8027 109.7 6.7792C109.875 6.75957 110.053 6.76609 112.074 6.85415C112.17 6.85833 112.271 6.8627 112.375 6.86726C112.375 6.86726 112.375 6.86726 112.375 6.86727ZM192.98 86.3517C191.988 132.129 154.747 168.794 109 169C63.2544 168.794 26.0139 132.129 25.0203 86.3517C25.0192 86.3023 25.0182 86.2529 25.0172 86.2034C24.1029 40.4554 59.7212 2.31163 105.331 0.121834C105.429 0.117131 105.527 0.112594 105.625 0.108222C109.392 -0.0596807 110.309 0.00396773 111.111 0.0596719C111.472 0.0847632 111.81 0.108243 112.375 0.108222C112.473 0.112593 112.571 0.117131 112.669 0.121833C158.279 2.31162 193.897 40.4554 192.983 86.2034C192.982 86.2529 192.981 86.3023 192.98 86.3517Z" fill="#675A54"/>
<path fill-rule="evenodd" clip-rule="evenodd" d="M124.105 92.0147C124.943 91.5713 125.897 91.3202 126.909 91.3202C130.225 91.3202 132.923 94.0182 132.924 97.3344V97.3347L132.921 111.587C132.92 119.236 130.699 126.658 126.497 133.049C126.107 133.643 125.444 134 124.734 134H101.009C100.47 134 99.9507 133.793 99.5589 133.422C99.2301 133.111 91.509 125.706 89.9278 115.808L87.1558 103.944C86.7692 102.29 87.1099 100.632 88.0909 99.3953C89.0248 98.2181 90.4626 97.5189 92.0646 97.4547C93.5545 97.1678 95.0739 97.4479 96.3697 98.2529C96.7719 98.5026 97.1382 98.7941 97.4643 99.1212V86.054H96.9632C93.9242 86.054 91.4517 83.5816 91.4517 80.5425V67.5115C91.4517 64.4725 93.9242 62 96.9632 62H109.994C113.033 62 115.506 64.4725 115.506 67.5115V80.5424C115.506 83.5814 113.033 86.0539 109.994 86.0539H109.493V87.9315C110.06 87.7538 110.664 87.6579 111.289 87.6579C113.274 87.6579 115.038 88.6251 116.134 90.1133C117.01 89.6154 118.022 89.3307 119.099 89.3307C121.184 89.3307 123.026 90.3977 124.105 92.0147ZM94.0831 115.077C95.1853 122.134 100.195 127.973 101.895 129.781H123.575C126.932 124.3 128.702 118.034 128.703 111.587L128.705 97.3342C128.705 96.3444 127.899 95.5388 126.909 95.5388C125.919 95.5388 125.113 96.3444 125.113 97.3346V100.761C125.113 101.926 124.169 102.871 123.004 102.871C121.839 102.871 120.895 101.926 120.895 100.761V97.3346V95.3453C120.895 94.3551 120.089 93.5495 119.099 93.5495C118.109 93.5495 117.303 94.3551 117.303 95.3453V99.2881C117.303 100.453 116.359 101.398 115.194 101.398C114.029 101.398 113.084 100.453 113.084 99.2881V95.3453V93.6724C113.084 92.6823 112.279 91.8768 111.289 91.8768C110.298 91.8768 109.493 92.6823 109.493 93.6724V99.0479C109.493 100.213 108.548 101.157 107.384 101.157C106.219 101.157 105.274 100.213 105.274 99.0479V93.6724V79.2676C105.274 78.2775 104.469 77.4718 103.478 77.4718C102.488 77.4718 101.683 78.2775 101.683 79.2676V112.792C101.683 113.397 101.423 113.973 100.969 114.373C100.516 114.774 99.912 114.96 99.3114 114.885L99.1424 114.864C98.2663 114.754 97.5512 114.111 97.3502 113.251L94.9443 102.953C94.8352 102.486 94.5508 102.09 94.1433 101.837C93.7358 101.583 93.2451 101.552 92.7666 101.581C92.6606 101.587 92.5873 101.598 92.5075 101.609C92.4444 101.618 92.3772 101.628 92.2866 101.636C91.8789 101.675 91.5739 101.792 91.3956 102.017C91.2173 102.242 91.1705 102.586 91.2636 102.984L94.053 114.923C94.065 114.974 94.075 115.025 94.0831 115.077ZM95.6705 67.5115V80.5425C95.6705 81.2554 96.2504 81.8353 96.963 81.8353H97.464V79.2675C97.464 75.9511 100.162 73.253 103.479 73.253C106.795 73.253 109.493 75.9511 109.493 79.2675V81.8353H109.994C110.707 81.8353 111.287 81.2554 111.287 80.5425V67.5115C111.287 66.7987 110.707 66.2188 109.994 66.2188H96.9632C96.2504 66.2188 95.6705 66.7987 95.6705 67.5115ZM123.972 62H137.003C140.042 62 142.515 64.4725 142.515 67.5115V80.5425C142.515 83.5816 140.042 86.054 137.003 86.054H123.972C120.933 86.054 118.461 83.5816 118.461 80.5425V67.5115C118.461 64.4725 120.933 62 123.972 62ZM137.003 81.8353C137.716 81.8353 138.296 81.2554 138.296 80.5425V67.5115C138.296 66.7987 137.716 66.2188 137.003 66.2188H123.972C123.26 66.2188 122.68 66.7987 122.68 67.5115V80.5425C122.68 81.2554 123.26 81.8353 123.972 81.8353H137.003Z" fill="#675A54"/>
</svg>
