<svg width="15" height="16" viewBox="0 0 15 16" fill="none" xmlns="http://www.w3.org/2000/svg">
<path d="M7.79217 7.97784H6.49347C4.13439 7.13415 2.59738 5.15529 2.59738 2.961V1.01001H11.6883V2.961C11.6883 5.15529 10.1513 7.13415 7.79217 7.97784Z" fill="#7EC95C"/>
<path d="M6.49347 7.97708H7.79217C10.1513 8.82078 11.6883 10.7997 11.6883 12.994V14.945H2.59738V12.994C2.59738 10.7997 4.13439 8.82078 6.49347 7.97708Z" fill="#7EC95C"/>
<path d="M0.649351 1.59015H1.2987H2.5974H13.6364C13.9955 1.59015 14.2857 1.32995 14.2857 1.00935C14.2857 0.688755 13.9955 0.428558 13.6364 0.428558H2.5974H1.2987H0.649351C0.29026 0.428558 0 0.688755 0 1.00935C0 1.32995 0.29026 1.59015 0.649351 1.59015Z" fill="#48AD19"/>
<path d="M13.6357 14.3632H1.9474C1.94545 14.3632 1.9435 14.3644 1.94091 14.3644H0.64935C0.29026 14.3644 0 14.6246 0 14.9452C0 15.2658 0.29026 15.526 0.64935 15.526H2.5974C2.59935 15.526 2.6013 15.5248 2.60389 15.5248H13.6357C13.9948 15.5248 14.2851 15.2646 14.2851 14.944C14.2851 14.6234 13.9948 14.3632 13.6357 14.3632Z" fill="#48AD19"/>
</svg>
