<svg width="114" height="114" viewBox="0 0 114 114" fill="none" xmlns="http://www.w3.org/2000/svg">
<circle cx="57" cy="57" r="56.5" stroke="#D1D1D1"/>
<ellipse rx="19.2448" ry="18.0553" transform="matrix(0.994399 -0.105694 0.116378 0.993205 52.3634 62.5992)" fill="#7EC95C"/>
<path fill-rule="evenodd" clip-rule="evenodd" d="M79.3845 64.8351L86.687 72.138C87.1043 72.5551 87.1043 73.2315 86.6872 73.6488L83.464 76.872C83.0524 77.2836 82.3647 77.2836 81.9531 76.872L74.6504 69.5693L70.5709 73.6488C70.0008 74.2188 68.9964 73.9507 68.7847 73.1744L67.0813 66.9285H38.0684C37.4784 66.9285 37 66.4501 37 65.86V43.0679C37 42.4779 37.4784 41.9995 38.0684 41.9995H74.5357C75.1257 41.9995 75.6041 42.4779 75.6041 43.0679V56.9551L82.9897 58.9694C83.7658 59.1811 84.0341 60.1855 83.464 60.7556L79.3845 64.8351ZM39.1367 44.1364V64.7916H66.4984L63.9497 55.4462C63.7361 54.6634 64.4787 53.9208 65.2615 54.1344L73.4674 56.3723V44.1364H39.1367ZM75.4059 67.3031L82.7086 74.6058L84.4209 72.8935L77.1182 65.5908C76.701 65.1736 76.701 64.4972 77.1182 64.0799L80.6514 60.5466L66.5032 56.6881L70.3618 70.8362L73.895 67.3031C74.3066 66.8915 74.9943 66.8914 75.4059 67.3031ZM52.8832 69.3503H59.7209C62.1951 69.3503 64.2081 71.3632 64.2081 73.8376C64.2081 76.3118 62.1951 78.3248 59.7209 78.3248H52.8832C50.409 78.3248 48.396 76.3118 48.396 73.8376C48.396 71.3634 50.409 69.3503 52.8832 69.3503ZM52.8832 76.188H59.7209C61.0169 76.188 62.0713 75.1335 62.0713 73.8376C62.0713 72.5417 61.0169 71.4872 59.7209 71.4872H52.8832C51.5873 71.4872 50.5328 72.5415 50.5328 73.8376C50.5328 75.1336 51.5872 76.188 52.8832 76.188Z" fill="#675A54"/>
</svg>
