<svg width="193" height="177" viewBox="0 0 193 177" fill="none" xmlns="http://www.w3.org/2000/svg">
<circle cx="83" cy="94" r="83" fill="#7EC95C"/>
<path fill-rule="evenodd" clip-rule="evenodd" d="M112.375 6.86727C154.506 8.70367 187.456 43.8767 186.613 86.0761C186.613 86.0762 186.613 86.0763 186.613 86.0763C186.612 86.122 186.611 86.1677 186.61 86.2133C185.692 128.464 151.232 162.236 109.03 162.253C109.02 162.253 109.01 162.253 109 162.253C108.99 162.253 108.98 162.253 108.97 162.253C66.7696 162.236 32.3095 128.464 31.3917 86.2133C31.3907 86.1676 31.3898 86.1218 31.3889 86.0761C30.5452 43.8766 63.4962 8.70354 105.625 6.86726C105.728 6.86726 105.828 6.8672 105.926 6.8671C105.926 6.8671 105.926 6.8671 105.926 6.8671C109.285 6.86368 109.49 6.8027 109.7 6.7792C109.875 6.75957 110.053 6.76609 112.074 6.85415C112.17 6.85833 112.271 6.8627 112.375 6.86726C112.375 6.86726 112.375 6.86726 112.375 6.86727ZM192.98 86.3517C191.988 132.129 154.747 168.794 109 169C63.2544 168.794 26.0139 132.129 25.0203 86.3517C25.0192 86.3023 25.0182 86.2529 25.0172 86.2034C24.1029 40.4554 59.7212 2.31163 105.331 0.121834C105.429 0.117131 105.527 0.112594 105.625 0.108222C109.392 -0.0596807 110.309 0.00396773 111.111 0.0596719C111.472 0.0847632 111.81 0.108243 112.375 0.108222C112.473 0.112593 112.571 0.117131 112.669 0.121833C158.279 2.31162 193.897 40.4554 192.983 86.2034C192.982 86.2529 192.981 86.3023 192.98 86.3517Z" fill="#675A54"/>
<path fill-rule="evenodd" clip-rule="evenodd" d="M148.504 97.3239C148.307 97.0072 143.591 89.487 136.035 82.1821C129.343 75.7123 118.873 68 107 68C95.1266 68 84.6568 75.7123 77.9644 82.1821C70.3885 89.5063 65.6934 97.0076 65.4974 97.323C64.8345 98.3836 64.8343 99.7534 65.4964 100.813C65.6931 101.13 70.3934 108.636 77.9646 115.956C84.6568 122.426 95.1268 130.138 107 130.138C129.997 130.138 147.759 102.011 148.504 100.814C149.165 99.7538 149.165 98.3841 148.504 97.3239ZM141.502 99.4009C139.301 102.513 134.708 108.514 128.677 113.753C121.198 120.25 113.905 123.544 107 123.544C100.095 123.544 92.8017 120.25 85.3232 113.753C79.2931 108.515 74.6993 102.512 72.4976 99.4011L72.2631 99.0698L72.4976 98.7385C74.6983 95.627 79.2912 89.6252 85.3232 84.3847C92.8019 77.8879 100.095 74.5939 107 74.5939C113.905 74.5939 121.198 77.8881 128.677 84.3847C134.71 89.626 139.302 95.6274 141.502 98.7385L141.736 99.0698L141.502 99.4009ZM107 77.3864C95.0439 77.3864 85.317 87.1134 85.317 99.0697C85.317 111.026 95.0439 120.753 107 120.753C118.956 120.753 128.683 111.026 128.683 99.0697C128.683 87.1136 118.956 77.3864 107 77.3864ZM107 114.158C98.6797 114.158 91.9106 107.39 91.9106 99.0699C91.9106 90.7494 98.6797 83.9803 107 83.9803C115.32 83.9803 122.089 90.7494 122.089 99.0699C122.089 107.39 115.32 114.158 107 114.158ZM99.8322 99.0694C99.8322 95.1163 103.048 91.9004 107 91.9004C110.952 91.9004 114.168 95.1165 114.168 99.0694C114.168 103.021 110.952 106.237 107 106.237C103.048 106.237 99.8322 103.021 99.8322 99.0694Z" fill="#675A54"/>
</svg>
