<svg width="62" height="49" viewBox="0 0 62 49" fill="none" xmlns="http://www.w3.org/2000/svg">
<path d="M10.4732 15.8272H3.35291V19.4546H10.4732V15.8272Z" fill="#675A54"/>
<path d="M10.4732 30.337H3.35291V33.9645H10.4732V30.337Z" fill="#675A54"/>
<path d="M10.4734 23.0821H0V26.7094H10.4734V23.0821Z" fill="#675A54"/>
<path d="M38.053 0.984436C24.8487 0.984436 14.1061 11.7111 14.1061 24.8958C14.1061 38.0806 24.8486 48.8073 38.053 48.8073C51.2574 48.8073 62 38.0806 62 24.8958C62 11.7111 51.2574 0.984436 38.053 0.984436ZM38.053 45.1798C26.8518 45.1798 17.7389 36.0804 17.7389 24.8958C17.7389 13.7113 26.8518 4.61187 38.053 4.61187C49.2543 4.61187 58.3672 13.7113 58.3672 24.8958C58.3672 36.0804 49.2543 45.1798 38.053 45.1798Z" fill="#675A54"/>
<path d="M39.226 25.7971V14.0808H35.5931V27.7147L44.9547 34.0848L47.0005 31.0872L39.226 25.7971Z" fill="#675A54"/>
</svg>
