<svg width="50" height="50" viewBox="0 0 50 50" fill="none" xmlns="http://www.w3.org/2000/svg">
<g clip-path="url(#clip0)">
<path fill-rule="evenodd" clip-rule="evenodd" d="M26.6379 7.28792C26.6379 8.19221 25.9048 8.92534 25.0005 8.92534C24.0962 8.92534 23.363 8.19221 23.363 7.28792V1.63749C23.363 0.733191 24.0962 6.10352e-05 25.0005 6.10352e-05C25.9048 6.10352e-05 26.6379 0.733191 26.6379 1.63749V7.28792ZM12.0657 24.232C12.0657 17.0996 17.8685 11.2968 25.0009 11.2968C32.1327 11.2968 37.9348 17.0996 37.935 24.232C37.935 27.1536 36.9772 29.913 35.1652 32.2119C34.8601 32.5999 34.5252 32.9934 34.1709 33.4097L34.1613 33.421L34.1078 33.4839C32.8677 34.9423 31.4748 36.5808 31.0028 38.2872C30.9236 38.5747 30.8843 39.1288 30.8897 39.8882V40.8879C30.8897 41.7922 30.1566 42.5253 29.2523 42.5253H20.6783C19.774 42.5253 19.0409 41.7922 19.0409 40.8879V39.8997C19.047 39.3184 19.0319 38.5636 18.9258 38.17C18.4564 36.4522 17.1995 34.9934 15.9839 33.583L15.9621 33.5577C15.5647 33.0968 15.1894 32.6615 14.8323 32.2067C13.0228 29.909 12.0657 27.151 12.0657 24.232ZM31.6676 31.2982C32.0043 30.9029 32.3222 30.5293 32.5918 30.1863C33.9452 28.4692 34.66 26.4108 34.66 24.232C34.66 18.9053 30.3269 14.5716 25.0009 14.5716C19.6742 14.5716 15.3405 18.9053 15.3405 24.232C15.3405 26.4084 16.0549 28.4661 17.4063 30.1822C17.7187 30.5795 18.0702 30.9873 18.4425 31.419L18.4645 31.4447L18.4648 31.445C19.7819 32.9735 21.4207 34.8752 22.0865 37.3124C22.1837 37.6726 22.29 38.2075 22.3127 39.2505H27.6206C27.6472 38.2684 27.7518 37.7576 27.8459 37.4161C28.5113 35.0106 30.1531 33.0795 31.6017 31.3757L31.6676 31.2982ZM20.6784 42.9901H29.2522C30.1565 42.9901 30.8898 43.7233 30.8898 44.6276C30.8898 45.5319 30.1567 46.265 29.2524 46.265H20.6784C19.7741 46.265 19.041 45.5319 19.041 44.6276C19.041 43.7233 19.7741 42.9901 20.6784 42.9901ZM27.1085 46.7252H22.8218C21.9175 46.7252 21.1843 47.4584 21.1843 48.3626C21.1843 49.2669 21.9175 50.0001 22.8218 50.0001H27.1085C28.0128 50.0001 28.746 49.2669 28.746 48.3626C28.746 47.4584 28.0128 46.7252 27.1085 46.7252ZM41.9461 22.5946H47.5948C48.4991 22.5946 49.2322 23.3277 49.2322 24.232C49.2322 25.1363 48.4991 25.8694 47.5948 25.8694H41.9461C41.0418 25.8694 40.3087 25.1363 40.3087 24.232C40.3087 23.3277 41.0418 22.5946 41.9461 22.5946ZM9.6925 24.232C9.6925 23.3277 8.95937 22.5946 8.05507 22.5946H2.40574C1.50144 22.5946 0.768311 23.3277 0.768311 24.232C0.768311 25.1363 1.50144 25.8694 2.40574 25.8694H8.05507C8.95937 25.8694 9.6925 25.1363 9.6925 24.232ZM38.1398 35.056C37.5004 34.4166 36.4638 34.4163 35.8241 35.0558C35.1846 35.6953 35.1844 36.7319 35.8239 37.3716L39.8183 41.3671C40.1381 41.687 40.5571 41.8468 40.9763 41.8468C41.3952 41.8468 41.8142 41.687 42.1341 41.3673C42.7735 40.7279 42.7737 39.6913 42.1343 39.0516L38.1398 35.056ZM13.0169 13.8868C12.5978 13.8868 12.1788 13.7267 11.859 13.4069L7.86604 9.41244C7.22679 8.77297 7.22679 7.73638 7.86648 7.09691C8.50595 6.45766 9.54255 6.45766 10.182 7.09734L14.1749 11.0918C14.8142 11.7313 14.8142 12.7679 14.1745 13.4073C13.8549 13.7269 13.4359 13.8868 13.0169 13.8868ZM11.8607 35.056L7.86603 39.0516C7.22656 39.691 7.22678 40.7278 7.86625 41.3671C8.18587 41.6867 8.60505 41.8465 9.02402 41.8465C9.44298 41.8465 9.86216 41.6867 10.182 41.3669L14.1767 37.3713C14.8161 36.7319 14.8159 35.695 14.1765 35.0558C13.537 34.4165 12.5002 34.4165 11.8607 35.056ZM38.1407 13.4069C37.8209 13.7267 37.4017 13.8865 36.9827 13.8865C36.5635 13.8865 36.1446 13.7269 35.8252 13.4071C35.1857 12.7678 35.1855 11.731 35.825 11.0915L39.8185 7.09732C40.4578 6.45763 41.4946 6.45763 42.1341 7.0971C42.7735 7.73635 42.7737 8.77317 42.1343 9.41264L38.1407 13.4069Z" fill="#675A54"/>
</g>
<defs>
<clipPath id="clip0">
<rect width="50" height="50" fill="white" transform="translate(0.000244141)"/>
</clipPath>
</defs>
</svg>
