<svg width="14" height="14" viewBox="0 0 14 14" fill="none" xmlns="http://www.w3.org/2000/svg">
<path d="M7.00093 4.77222C5.7736 4.77222 4.77515 5.7707 4.77515 6.998C4.77515 8.2253 5.77363 9.22378 7.00093 9.22378C8.22822 9.22378 9.22671 8.2253 9.22671 6.998C9.22671 5.7707 8.22825 4.77222 7.00093 4.77222Z" fill="#6BBD45"/>
<path d="M11.3933 0H2.60679C1.16941 0 0 1.16938 0 2.60676V11.3932C0 12.8306 1.16941 14 2.60679 14H11.3933C12.8306 14 14 12.8306 14 11.3932V2.60676C14 1.16938 12.8306 0 11.3933 0ZM7 10.0461C5.32036 10.0461 3.95391 8.67959 3.95391 7C3.95391 5.32041 5.32036 3.95391 7 3.95391C8.67964 3.95391 10.0461 5.32038 10.0461 7C10.0461 8.67962 8.67964 10.0461 7 10.0461ZM11.2438 3.33618C11.1676 3.41247 11.062 3.45622 10.954 3.45622C10.846 3.45622 10.7402 3.41247 10.6639 3.33618C10.5876 3.25989 10.5438 3.15407 10.5438 3.04607C10.5438 2.93809 10.5876 2.83248 10.6639 2.75622C10.7402 2.67963 10.846 2.63591 10.954 2.63591C11.0617 2.63591 11.1676 2.67966 11.2438 2.75622C11.3204 2.83248 11.3641 2.93806 11.3641 3.04607C11.3641 3.15407 11.3204 3.25989 11.2438 3.33618Z" fill="#6BBD45"/>
</svg>
