<svg width="34" height="50" viewBox="0 0 34 50" fill="none" xmlns="http://www.w3.org/2000/svg">
<path d="M31.3399 15.81C30.0223 12.7979 28.1887 9.93145 25.8898 7.28975C21.9839 2.80166 18.1011 0.521777 17.9376 0.426953L17.2023 0L16.4668 0.426953C16.3034 0.521875 12.4206 2.80166 8.51467 7.28975C6.21575 9.93145 4.38215 12.7979 3.06458 15.81C1.41077 19.5906 0.572388 23.605 0.572388 27.7414C0.572388 36.368 7.26956 43.4594 15.7375 44.0901V50H18.6671V44.0901C27.1351 43.4593 33.8323 36.3679 33.8323 27.7414C33.8322 23.6051 32.9937 19.5906 31.3399 15.81ZM10.6592 9.28828C12.5014 7.15889 14.3595 5.55488 15.7374 4.49424V17.3037L7.93128 12.9265C8.73713 11.6734 9.64758 10.4578 10.6592 9.28828ZM5.72444 17.0395C5.95481 16.5099 6.20344 15.9849 6.46897 15.465L15.7374 20.6624V30.0086L3.86145 23.3491C4.21838 21.1854 4.83948 19.0746 5.72444 17.0395ZM15.7375 41.1499C8.88704 40.5268 3.50188 34.7517 3.50188 27.7414C3.50188 27.3336 3.51252 26.9272 3.53059 26.5223L15.7375 33.3674V41.1499ZM28.6558 16.984C29.5535 19.0363 30.1827 21.1657 30.5429 23.3491L18.667 30.0086V20.6624L27.9359 15.4647C28.1923 15.9666 28.4324 16.473 28.6558 16.984ZM18.6669 17.3037V4.49102C20.025 5.53594 21.8518 7.11231 23.6798 9.21299C24.7176 10.4056 25.6503 11.6462 26.4736 12.9262L18.6669 17.3037ZM18.667 41.1499V33.3674L30.8739 26.5224C30.8919 26.9274 30.9026 27.3337 30.9026 27.7415C30.9027 34.7516 25.5176 40.5268 18.667 41.1499Z" fill="#675A54"/>
</svg>
