<svg width="114" height="114" viewBox="0 0 114 114" fill="none" xmlns="http://www.w3.org/2000/svg">
<g clip-path="url(#clip0)">
<circle r="18" transform="matrix(0.946965 -0.321336 0.331498 0.943456 55.0123 57.5019)" fill="#7EC95C"/>
<path d="M80 59.1089C80 57.923 79.4506 56.8636 78.5934 56.1702C79.6856 55.2881 80.1639 53.9229 79.9487 52.6013C79.6565 50.8051 77.9863 49.4507 76.0636 49.4507C75.1368 49.4507 69.0489 49.4507 68.0634 49.4507L68.3123 48.7035C69.7357 44.4344 68.4139 39.8727 65.281 37.2039C63.5312 35.6944 60.5459 36.1977 59.6288 38.6952C59.5649 38.8692 59.5605 39.0595 59.6161 39.2364C60.3137 41.4555 60.3236 42.9475 59.6502 44.3864C58.9519 45.8788 57.4497 47.4457 54.6271 49.6258C53.9496 50.149 53.3574 50.4688 52.7847 50.7782C51.8825 51.2653 51.026 51.7279 50.1404 52.81H47.0781V51.9701C47.0781 51.5063 46.7021 51.1303 46.2383 51.1303H37.8398C37.376 51.1303 37 51.5063 37 51.9701V73.8061C37 74.2699 37.376 74.6459 37.8398 74.6459H46.2383C46.7021 74.6459 47.0781 74.2699 47.0781 73.8061V71.2866H51.7887C54.2304 73.4555 57.3643 74.6459 60.6517 74.6459C62.5901 74.6459 69.0494 74.6459 71.1816 74.6459C73.2707 74.6459 74.9609 72.9559 74.9609 70.8666C74.9609 70.0903 74.7254 69.3679 74.3223 68.767H74.541C76.63 68.767 78.3203 67.077 78.3203 64.9877C78.3203 64.1106 78.0191 63.303 77.5159 62.6609C78.951 62.1388 80 60.7571 80 59.1089ZM45.3984 72.9663H38.6797V52.8101H45.3984V72.9663ZM76.2207 61.2085C75.4039 61.2085 69.0196 61.2085 68.1582 61.2085C67.6944 61.2085 67.3184 61.5845 67.3184 62.0484C67.3184 62.5122 67.6944 62.8882 68.1582 62.8882H74.541C75.6987 62.8882 76.6406 63.8301 76.6406 64.9878C76.6406 66.1484 75.7019 67.0874 74.541 67.0874C72.1853 67.0874 70.0818 67.0874 68.1582 67.0874C67.6944 67.0874 67.3184 67.4634 67.3184 67.9273C67.3184 68.3911 67.6944 68.7671 68.1582 68.7671H71.1816C72.3394 68.7671 73.2812 69.709 73.2812 70.8667C73.2812 72.0273 72.3426 72.9663 71.1816 72.9663C68.9837 72.9663 62.4533 72.9663 60.6517 72.9663C57.679 72.9663 54.8505 71.8535 52.6871 69.833C52.5316 69.6877 52.3266 69.6069 52.1138 69.6069H47.0781V54.4898H50.5517C50.8187 54.4898 51.0697 54.3629 51.228 54.1479C51.9856 53.1189 52.6556 52.757 53.583 52.2562C54.1855 51.9308 54.8683 51.5621 55.6541 50.9553C61.4042 46.5138 62.72 43.7926 61.3112 39.0361C61.8681 37.9654 63.2571 37.6766 64.2436 38.5285C66.9204 40.8685 67.8921 44.6539 66.719 48.1725L66.2931 49.4509H65.2188C64.755 49.4509 64.3789 49.8269 64.3789 50.2907C64.3789 50.7546 64.755 51.1306 65.2188 51.1306C66.5085 51.1306 74.7387 51.1306 76.0637 51.1306C77.1719 51.1306 78.1294 51.8789 78.2909 52.8713C78.5098 54.215 77.4772 55.3298 76.2208 55.3298C75.3604 55.3298 68.9777 55.3298 68.1583 55.3298C67.6945 55.3298 67.3184 55.7058 67.3184 56.1696C67.3184 56.6335 67.6945 57.0095 68.1583 57.0095C68.9751 57.0095 75.3594 57.0095 76.2208 57.0095C77.3785 57.0095 78.3204 57.9513 78.3204 59.1091C78.3203 60.2695 77.3816 61.2085 76.2207 61.2085Z" fill="#675A54"/>
</g>
<circle cx="57" cy="57" r="56.5" stroke="#D1D1D1"/>
<defs>
<clipPath id="clip0">
<rect width="43" height="43" fill="white" transform="translate(37 34)"/>
</clipPath>
</defs>
</svg>
