<svg width="15" height="18" viewBox="0 0 15 18" fill="none" xmlns="http://www.w3.org/2000/svg">
<path d="M14.2857 6.18701H0V17.1861H14.2857V6.18701Z" fill="#7EC95C"/>
<path d="M9.28571 10.9991C9.28571 9.86003 8.32643 8.9368 7.14286 8.9368C5.95929 8.9368 5 9.86003 5 10.9991C5 11.9045 5.61 12.6655 6.45357 12.9425C6.44571 12.9824 6.42857 13.0195 6.42857 13.0614V14.4363C6.42857 14.8158 6.74857 15.1237 7.14286 15.1237C7.53714 15.1237 7.85714 14.8158 7.85714 14.4363V13.0614C7.85714 13.0195 7.84 12.9824 7.83214 12.9425C8.67571 12.6655 9.28571 11.9045 9.28571 10.9991Z" fill="#48AD19"/>
<path d="M3.57142 4.8121C3.57142 2.91682 5.17357 1.37489 7.14285 1.37489C9.11214 1.37489 10.7143 2.91682 10.7143 4.8121V6.18699H12.1429V4.8121C12.1429 2.15857 9.9 0 7.14285 0C4.38571 0 2.14285 2.15857 2.14285 4.8121V6.18699H3.57142V4.8121Z" fill="#48AD19"/>
</svg>
