<svg width="55" height="51" viewBox="0 0 55 51" fill="none" xmlns="http://www.w3.org/2000/svg">
<path d="M54.3356 14.2953C53.631 12.9791 52.4561 12.0164 51.0272 11.5841C49.5984 11.1516 48.0867 11.3019 46.7707 12.0065C45.4548 12.7113 44.4919 13.8862 44.0596 15.3151C43.7715 16.2669 43.748 17.2545 43.9685 18.1973L37.934 21.4286C36.0986 18.8517 33.2375 17.0565 29.9502 16.6429V11.4933C32.3291 10.8517 34.085 8.67628 34.085 6.09747C34.085 3.01588 31.5779 0.508789 28.4963 0.508789C25.4148 0.508789 22.9074 3.01588 22.9074 6.09771C22.9074 8.67653 24.6636 10.8519 27.0423 11.4935V16.6427C22.8437 17.1711 19.3383 19.9535 17.7808 23.7382L11.1764 21.9588C11.1779 20.9903 10.9312 20.0337 10.435 19.1718C9.69036 17.8779 8.48637 16.9514 7.04516 16.563C4.06873 15.7609 0.996588 17.53 0.194812 20.5054C-0.193597 21.9469 0.00266746 23.4533 0.74726 24.7469C1.49185 26.0406 2.69585 26.9674 4.13706 27.3558C4.62093 27.4861 5.11184 27.5506 5.60007 27.5506C6.56564 27.5506 7.5191 27.2979 8.37879 26.8033C9.24065 26.3073 9.9346 25.6044 10.4199 24.7663L17.0246 26.546C16.9533 27.0648 16.9134 27.5932 16.9134 28.1314C16.9134 30.8018 17.8242 33.2621 19.3483 35.2236L14.5059 40.0659C12.3702 38.8389 9.59344 39.1309 7.77037 40.9535C5.59135 43.1325 5.59135 46.6781 7.77037 48.8574C8.86 49.947 10.291 50.4917 11.7223 50.4917C13.1533 50.4917 14.5846 49.947 15.6742 48.8574C17.4971 47.0343 17.789 44.2575 16.5618 42.1221L21.4042 37.2797C23.3656 38.8038 25.8257 39.7146 28.4963 39.7146C31.167 39.7146 33.6271 38.8038 35.5885 37.2797L40.4309 42.1221C39.2039 44.2578 39.4956 47.0345 41.3185 48.8574C42.4081 49.947 43.8391 50.4917 45.2704 50.4917C46.7017 50.4917 48.1327 49.9468 49.2223 48.8574C51.4013 46.6784 51.4013 43.1328 49.2223 40.9535C47.3995 39.1307 44.6225 38.8389 42.4871 40.0659L37.6447 35.2236C39.1688 33.2621 40.0796 30.802 40.0796 28.1314C40.0796 26.6725 39.8058 25.2768 39.3112 23.9897L45.3414 20.7608C46.0038 21.4671 46.8388 21.9949 47.7908 22.283C48.3258 22.4448 48.8727 22.525 49.4164 22.525C50.3246 22.525 51.2242 22.3011 52.0473 21.8604C53.3635 21.1558 54.3262 19.9809 54.7584 18.552C55.1907 17.1232 55.0402 15.6112 54.3356 14.2953ZM50.6742 19.2968C50.043 19.6351 49.3178 19.7071 48.6323 19.4994C47.9468 19.2922 47.3833 18.8302 47.0452 18.1987C46.707 17.5675 46.6353 16.8421 46.8427 16.1566C47.0499 15.4711 47.5119 14.9076 48.1434 14.5695C48.5383 14.358 48.9698 14.2507 49.4055 14.2507C49.6662 14.2507 49.9286 14.2892 50.1852 14.3667C50.8707 14.5739 51.4343 15.036 51.7723 15.6674C52.1106 16.2986 52.1823 17.0238 51.9749 17.7093C51.7677 18.3952 51.3056 18.9588 50.6742 19.2968ZM37.1715 28.1311C37.1715 32.9147 33.2796 36.8065 28.4961 36.8065C23.7126 36.8065 19.8207 32.9147 19.8207 28.1311C19.8207 23.3476 23.7126 19.4558 28.4961 19.4558C33.2796 19.4558 37.1715 23.3476 37.1715 28.1311ZM25.815 6.09771C25.815 4.61919 27.0178 3.41665 28.4961 3.41665C29.9744 3.41665 31.1772 4.61943 31.1772 6.09771C31.1772 7.57599 29.9744 8.77878 28.4961 8.77878C27.0178 8.77878 25.815 7.57599 25.815 6.09771ZM4.89352 24.5482C4.20199 24.3619 3.62459 23.9173 3.26744 23.2968C2.91004 22.676 2.81603 21.9534 3.00236 21.2619C3.38689 19.8343 4.8613 18.986 6.28869 19.3705C6.98022 19.5568 7.55763 20.0012 7.91502 20.622C8.27217 21.2428 8.36619 21.9653 8.17986 22.6568C7.79532 24.0845 6.3214 24.9328 4.89352 24.5482ZM13.6181 46.801C12.573 47.8462 10.8718 47.8462 9.82629 46.801C8.78101 45.7557 8.78101 44.0547 9.82629 43.0092C10.3489 42.4865 11.0356 42.2253 11.7223 42.2253C12.4087 42.2253 13.0954 42.4868 13.6181 43.0092C14.6634 44.0547 14.6634 45.7557 13.6181 46.801ZM47.1659 43.0092C48.2112 44.0545 48.2112 45.7554 47.1659 46.801C46.1209 47.8462 44.4197 47.8462 43.3741 46.801C42.3288 45.7557 42.3288 44.0547 43.3741 43.0092C43.8968 42.4865 44.5835 42.2253 45.2701 42.2253C45.9566 42.2253 46.6433 42.4865 47.1659 43.0092Z" fill="#675A54"/>
</svg>
