<svg width="12" height="20" viewBox="0 0 12 20" fill="none" xmlns="http://www.w3.org/2000/svg">
<path d="M5.7925 3.02543C6.97143 3.02543 7.93019 3.9842 7.93019 5.16312C7.93019 6.3385 6.97143 7.29726 5.7925 7.29726C4.61357 7.29726 3.65481 6.3385 3.65481 5.16312C3.65481 3.9842 4.61357 3.02543 5.7925 3.02543ZM5.7925 10.3227C8.64039 10.3227 10.9556 8.00746 10.9556 5.16312C10.9556 2.31524 8.64039 0 5.7925 0C2.94462 0 0.632928 2.31524 0.632928 5.16312C0.632928 8.00746 2.94462 10.3227 5.7925 10.3227ZM7.88048 14.5342C8.93157 14.2927 9.94359 13.8772 10.8775 13.2913C11.5841 12.8474 11.7972 11.9135 11.3533 11.2069C10.9059 10.4967 9.97555 10.2836 9.26536 10.7311C7.15252 12.0591 4.43248 12.0591 2.31609 10.7311C1.60945 10.2836 0.67554 10.4967 0.231668 11.2069C-0.212205 11.9135 0.000853446 12.8474 0.707498 13.2913C1.64141 13.8772 2.65343 14.2927 3.70452 14.5342L0.817579 17.4176C0.228116 18.007 0.228116 18.9658 0.817579 19.5552C1.11586 19.85 1.49937 19.9991 1.88642 19.9991C2.27348 19.9991 2.66054 19.85 2.95882 19.5552L5.7925 16.7216L8.62973 19.5552C9.21919 20.1483 10.1744 20.1483 10.7674 19.5552C11.3569 18.9658 11.3569 18.007 10.7674 17.4176L7.88048 14.5342Z" fill="#6BBD45"/>
</svg>
