<svg width="193" height="177" viewBox="0 0 193 177" fill="none" xmlns="http://www.w3.org/2000/svg">
<circle cx="83" cy="94" r="83" fill="#7EC95C"/>
<path fill-rule="evenodd" clip-rule="evenodd" d="M186.613 86.0761C187.456 43.8767 154.506 8.70367 112.375 6.86727L112.375 6.86726L112.074 6.85415C110.053 6.76609 109.875 6.75957 109.7 6.7792C109.692 6.78011 109.684 6.78107 109.676 6.78207C109.667 6.78309 109.659 6.78415 109.65 6.78526C109.44 6.81176 109.026 6.86394 105.926 6.8671H105.926L105.625 6.86726C63.4962 8.70354 30.5452 43.8766 31.3889 86.0761L31.3917 86.2133C32.3095 128.464 66.7696 162.236 108.97 162.253H109H109.03C151.232 162.236 185.692 128.464 186.61 86.2133L186.613 86.0763L186.613 86.0761ZM109 169C154.747 168.794 191.988 132.129 192.98 86.3517L192.983 86.2034C193.897 40.4554 158.279 2.31162 112.669 0.121833C112.571 0.117131 112.473 0.112593 112.375 0.108222C111.81 0.108243 111.472 0.0847632 111.111 0.0596719C110.309 0.00396773 109.392 -0.0596807 105.625 0.108222C105.527 0.112594 105.429 0.117131 105.331 0.121834C59.7212 2.31163 24.1029 40.4554 25.0172 86.2034L25.0203 86.3517C26.0139 132.129 63.2544 168.794 109 169ZM91.4503 133.853C90.3313 135.347 88.2152 135.649 86.7254 134.528C85.2363 133.411 84.9317 131.297 86.0445 129.804L86.0452 129.803L86.0498 129.797L95.8063 116.772L116.788 88.7592L126.544 75.7349L126.546 75.732L126.551 75.725C127.67 74.2316 129.785 73.9297 131.276 75.0501C132.765 76.1672 133.068 78.2811 131.957 79.7741L131.956 79.7751L131.952 79.7811L122.195 92.8067L101.213 120.82L91.4555 133.846L91.4548 133.847L91.4503 133.853ZM86.726 134.528L88.7493 131.83L88.7527 131.833L86.726 134.528ZM88.7576 131.826L88.753 131.832L88.7497 131.83L88.7542 131.824L88.7546 131.823L98.7269 118.529L98.7314 118.533L98.7467 118.544L88.7579 131.826L88.7576 131.826ZM105.625 87.8917C105.625 95.357 99.5816 101.41 92.1243 101.41C84.6687 101.41 78.6238 95.357 78.6238 87.8917C78.6238 80.4264 84.6687 74.3736 92.1243 74.3736C99.5816 74.3736 105.625 80.4264 105.625 87.8917ZM98.8746 87.8917C98.8746 84.159 95.8538 81.1326 92.1243 81.1326C88.3965 81.1326 85.3741 84.159 85.3741 87.8917C85.3741 91.6243 88.3965 94.6507 92.1243 94.6507C95.8538 94.6507 98.8746 91.6243 98.8746 87.8917ZM112.375 121.687C112.375 129.152 118.42 135.205 125.876 135.205C133.333 135.205 139.376 129.152 139.376 121.687C139.376 114.222 133.333 108.169 125.876 108.169C118.42 108.169 112.375 114.222 112.375 121.687ZM132.626 121.687C132.626 125.42 129.605 128.446 125.876 128.446C122.148 128.446 119.125 125.42 119.125 121.687C119.125 117.954 122.148 114.928 125.876 114.928C129.605 114.928 132.626 117.954 132.626 121.687Z" fill="#675A54"/>
</svg>
