<svg width="114" height="114" viewBox="0 0 114 114" fill="none" xmlns="http://www.w3.org/2000/svg">
<circle cx="57" cy="57" r="56.5" stroke="#D1D1D1"/>
<ellipse rx="28.6243" ry="14.8504" transform="matrix(0.768957 -0.639301 0.64753 0.76204 54.0569 54.1726)" fill="#7EC95C"/>
<path d="M77.1259 39.366C76.4544 38.807 75.4611 38.8994 74.9037 39.5677L43.3653 77.4129C42.8079 78.0828 42.8987 79.0777 43.567 79.6351C43.8627 79.88 44.22 80 44.5758 80C45.0285 80 45.4767 79.8076 45.7892 79.4334L77.3276 41.5866C77.885 40.9175 77.7942 39.9234 77.1259 39.366Z" fill="#675A54"/>
<path d="M50.8846 54.7692C55.232 54.7692 58.7692 51.232 58.7692 46.8846C58.7692 42.5373 55.232 39 50.8846 39C46.5373 39 43 42.5373 43 46.8846C43 51.232 46.5373 54.7692 50.8846 54.7692ZM50.8846 42.1538C53.4933 42.1538 55.6153 44.2759 55.6153 46.8846C55.6153 49.4933 53.4933 51.6153 50.8846 51.6153C48.2761 51.6153 46.1538 49.4933 46.1538 46.8846C46.1538 44.2759 48.2761 42.1538 50.8846 42.1538Z" fill="#675A54"/>
<path d="M71.3848 64.2307C67.0376 64.2307 63.5002 67.7681 63.5002 72.1153C63.5002 76.4627 67.0376 79.9999 71.3848 79.9999C75.7322 79.9999 79.2694 76.4627 79.2694 72.1153C79.2694 67.7681 75.7322 64.2307 71.3848 64.2307ZM71.3848 76.8461C68.7763 76.8461 66.6541 74.724 66.6541 72.1153C66.6541 69.5066 68.7763 67.3845 71.3848 67.3845C73.9935 67.3845 76.1156 69.5066 76.1156 72.1153C76.1156 74.724 73.9935 76.8461 71.3848 76.8461Z" fill="#675A54"/>
</svg>
