<svg width="114" height="114" viewBox="0 0 114 114" fill="none" xmlns="http://www.w3.org/2000/svg">
<circle cx="57" cy="57" r="56.5" stroke="#D1D1D1"/>
<ellipse cx="49.139" cy="57.4094" rx="14.4988" ry="24.4825" transform="rotate(-11.8925 49.139 57.4094)" fill="#7EC95C"/>
<g clip-path="url(#clip0)">
<path fill-rule="evenodd" clip-rule="evenodd" d="M71.7826 44.1876C75.0535 47.4586 77.1823 51.5689 77.9524 56.086C78.0649 56.7177 77.6322 57.3234 77.0005 57.4186C76.9935 57.4194 76.9867 57.4203 76.9798 57.4212C76.919 57.4289 76.8637 57.4359 76.8015 57.4359C76.239 57.4359 75.7458 57.0378 75.6506 56.4667C74.967 52.4343 73.0633 48.7566 70.1384 45.8318C67.2136 42.9156 63.5359 41.0032 59.5035 40.3196C58.8631 40.2071 58.4391 39.61 58.543 38.9697C58.6555 38.338 59.2525 37.9053 59.8842 38.0178C64.4013 38.788 68.5116 40.9167 71.7826 44.1876ZM56.0946 75.5525L56.1295 75.5721L56.2544 75.6421L56.3594 75.7004C56.4088 75.7278 56.4584 75.7551 56.508 75.7823C56.6013 75.8334 56.6948 75.8842 56.7885 75.9346L56.8094 75.9459L56.811 75.9467C57.3183 76.2192 57.8322 76.4813 58.3526 76.7329L58.3586 76.7357L58.3685 76.7404C59.1178 77.0952 59.961 77.474 60.8794 77.8186C61.7373 78.1404 62.6609 78.4324 63.6346 78.6468L63.6447 78.649L63.7153 78.6644L63.7515 78.6721C64.4657 78.8242 65.2064 78.9339 65.9675 78.9827L65.9687 78.9828L65.9749 78.9831C66.1364 78.9908 66.3044 78.9983 66.4608 78.9998L66.4781 78.9999L66.5127 79L66.5213 79C68.4064 78.9981 70.0065 78.3568 71.2851 77.0834C71.3493 77.0194 71.4128 76.9538 71.4754 76.8866L71.4976 76.8627L71.5057 76.854C71.51 76.8454 71.5165 76.8389 71.523 76.8324C71.5295 76.8259 71.5359 76.8194 71.5403 76.8108L71.5476 76.8019C71.8402 76.4484 72.1619 76.1165 72.5008 75.7826C72.6424 75.6431 72.787 75.5033 72.9338 75.3614L73.0503 75.2487L73.0546 75.2445L73.0702 75.2296C73.4275 74.8887 73.7925 74.5319 74.1499 74.1592L74.1795 74.1282L74.1809 74.1268L74.201 74.1057L74.2096 74.0968L74.2133 74.0928L74.2175 74.0883C74.2906 74.0108 74.3606 73.9323 74.4276 73.8527C75.1228 73.0261 75.4862 72.0906 75.4862 71.1342C75.4862 70.0612 75.0276 69.0314 74.1536 68.1661L74.1406 68.1531L74.1326 68.145L72.5008 66.5073L69.4404 63.4357L69.4029 63.3981L69.3823 63.3768L69.3816 63.3761L69.3645 63.3586C68.7745 62.7567 68.1009 62.3537 67.382 62.1703C67.2866 62.1459 67.1905 62.1255 67.0936 62.1089L67.0548 62.1025L67.0503 62.1018C66.9584 62.0872 66.866 62.0762 66.773 62.0687C66.6895 62.0619 66.6056 62.0581 66.5213 62.0571L66.5127 62.057L66.4781 62.0568L66.4608 62.0569C66.2752 62.0577 66.0909 62.0726 65.9085 62.1011C65.7319 62.1287 65.557 62.1692 65.3844 62.2224L65.3637 62.2289L65.3326 62.2388L65.2988 62.2499C65.2658 62.2609 65.2328 62.2724 65.1999 62.2844L65.1765 62.293C64.5972 62.508 64.0465 62.8679 63.5437 63.3645L63.5186 63.3894L63.5143 63.3938L63.51 63.3981L63.4493 63.4586L63.275 63.6324L63.2674 63.6399L63.2361 63.6711L63.1135 63.7933L62.9176 63.9885L62.8513 64.0546L62.7776 64.1281L62.6123 64.2929L62.6061 64.2991L62.5472 64.3578L62.5301 64.3749L62.4986 64.4062L62.0927 64.8108L61.5174 65.3843L61.25 65.6509L60.8794 66.0203L60.7842 66.1152C60.6355 66.0352 60.4868 65.9589 60.3406 65.8839C60.2656 65.8454 60.1912 65.8072 60.1179 65.7691L60.1075 65.7639L60.0023 65.7113L59.9444 65.6822C59.928 65.6739 59.9116 65.6656 59.8953 65.6574C59.8706 65.6449 59.846 65.6324 59.8216 65.6199C59.6204 65.5172 59.4309 65.4158 59.2612 65.3105L59.2486 65.3024L59.2461 65.3009C59.1277 65.2256 59.0098 65.1492 58.8923 65.0717C58.8336 65.033 58.7751 64.994 58.7166 64.9548C58.5466 64.8406 58.3775 64.7242 58.2095 64.6054C57.8747 64.3689 57.5439 64.1232 57.2165 63.868C57.1496 63.8159 57.0828 63.7633 57.0162 63.7104C56.9019 63.6195 56.788 63.5275 56.6745 63.4343L56.674 63.4338L56.6694 63.43C56.2416 63.0785 55.8197 62.7101 55.4028 62.3241L55.3274 62.254C55.1963 62.1317 55.0657 62.0077 54.9355 61.8819C54.4852 61.4467 54.0406 60.9903 53.6006 60.5118C53.3121 60.198 53.0257 59.8747 52.7409 59.5416L52.7221 59.5197L52.7163 59.5128L52.6997 59.4934C52.5138 59.2751 52.3285 59.0527 52.144 58.8259L52.1395 58.8205L52.13 58.8085C52.0968 58.7665 52.064 58.7248 52.0315 58.6832L51.9798 58.6168L51.9722 58.6071C51.3543 57.8116 50.8577 57.0876 50.45 56.3866C50.3881 56.2802 50.3283 56.1743 50.2704 56.0687C50.2462 56.0246 50.2223 55.9806 50.1988 55.9366C50.1791 55.8998 50.1597 55.863 50.1405 55.8263L50.131 55.8082L50.103 55.7542C50.0811 55.7118 50.0596 55.6694 50.0383 55.6271C49.9556 55.4627 49.8774 55.2986 49.8031 55.1342L49.8213 55.1175C49.9195 55.0276 50.0166 54.9371 50.1129 54.8463L50.1718 54.7906L50.1771 54.7856L50.2535 54.7129C50.3336 54.6364 50.413 54.5598 50.492 54.483C50.8807 54.1049 51.2562 53.7238 51.6249 53.3497L51.7733 53.1991L51.8107 53.1612L51.8215 53.1504C51.939 53.0327 52.0566 52.9131 52.1741 52.7934L52.3091 52.6562L52.393 52.5711C52.4412 52.5224 52.4894 52.4739 52.5376 52.4257L52.5419 52.4213L52.5462 52.417L52.5635 52.3995L52.5934 52.369L52.6105 52.3515L52.6396 52.3211C53.2833 51.6445 53.6805 50.8979 53.8313 50.1349C53.8351 50.1157 53.8387 50.0966 53.8422 50.0774L53.85 50.0324L53.8508 50.0275L53.8569 49.9898C53.8951 49.7455 53.9082 49.4998 53.8961 49.2546L53.8956 49.2451L53.8955 49.2439L53.8936 49.2096C53.8794 48.9807 53.8433 48.7522 53.7853 48.5257C53.6054 47.8232 53.2148 47.1388 52.6135 46.5149C52.5899 46.4905 52.5661 46.4661 52.5419 46.4419L52.5376 46.4376L50.2049 44.1049L50.1795 44.0795L50.1752 44.0752C49.9115 43.8115 49.6394 43.5394 49.3836 43.2672L49.3832 43.2667L49.3704 43.2531C48.8678 42.7338 48.3409 42.1982 47.7975 41.6935L47.7706 41.6686L47.7436 41.6436L47.7398 41.6398C46.9058 40.8161 45.9098 40.3764 44.8621 40.3716L44.8448 40.3716C43.8037 40.3716 42.7962 40.8008 41.9386 41.6094L41.9026 41.6436L41.8853 41.6609L41.8336 41.7131L41.8293 41.7174L41.2509 42.3009L41.1013 42.4518L41.0298 42.524L40.9866 42.5675L39.5941 43.9723L39.4502 44.1175L38.9604 44.6116L38.9475 44.6247L38.9432 44.629L38.9173 44.655C37.9187 45.6638 37.3123 46.872 37.1111 48.2603C37.0928 48.3866 37.0778 48.5143 37.0662 48.6436L37.0655 48.6517L37.0654 48.6528C36.9647 49.8778 37.0878 51.0621 37.3063 52.1328L37.3152 52.1759L37.316 52.1798C37.3509 52.3482 37.3882 52.5137 37.4273 52.676C37.4364 52.7141 37.4457 52.7519 37.455 52.7896C37.5684 53.2468 37.6956 53.6781 37.8251 54.0769C37.8542 54.1667 37.8835 54.2548 37.9127 54.3413L37.9211 54.3658L37.9223 54.3695C38.0072 54.6194 38.0919 54.8547 38.173 55.0736L38.173 55.0736L38.1755 55.0802C38.238 55.2486 38.3018 55.4165 38.3671 55.584C38.395 55.6556 38.4232 55.7272 38.4517 55.7987L38.4542 55.8049C38.7701 56.5981 39.1181 57.3805 39.5012 58.1569L39.5609 58.2771L39.5979 58.3513C39.6848 58.5245 39.7735 58.6974 39.8639 58.8701C39.8915 58.9228 39.9192 58.9754 39.9471 59.028L39.9501 59.0336C40.0288 59.1818 40.1088 59.3299 40.1901 59.4778C40.2374 59.5638 40.2852 59.6497 40.3334 59.7357C40.8499 60.6562 41.4197 61.5731 42.0483 62.4951C42.6582 63.3899 43.3235 64.2893 44.049 65.2012L44.0587 65.2135L44.1299 65.3027L44.1477 65.3249C44.3101 65.5277 44.4754 65.7312 44.6439 65.9354L44.6517 65.9449C44.6985 66.0016 44.7455 66.0584 44.7928 66.1152L44.8031 66.1275L44.8102 66.136C47.1038 68.8713 49.6791 71.2583 52.5091 73.2742C52.7887 73.4734 53.0709 73.669 53.3555 73.8609C53.4642 73.9342 53.5733 74.007 53.6828 74.0793L53.6892 74.0835L53.6912 74.0848L53.7791 74.1427C54.2712 74.4655 54.7705 74.7776 55.2768 75.0789C55.3213 75.1053 55.3658 75.1317 55.4104 75.158L55.4205 75.1639C55.459 75.1866 55.4976 75.2093 55.5362 75.2319C55.5578 75.2445 55.5794 75.2571 55.601 75.2697C55.6654 75.3072 55.7299 75.3445 55.7945 75.3817C55.8943 75.439 55.9943 75.496 56.0946 75.5525ZM56.4661 73.0727C56.5874 73.145 56.7091 73.2166 56.8313 73.2876L56.9005 73.3277C57.0326 73.4041 57.1652 73.4797 57.2982 73.5545L57.403 73.6131C57.5844 73.7143 57.7666 73.8141 57.9498 73.9124C58.0579 73.9705 58.1664 74.028 58.2752 74.0851C58.3546 74.1267 58.4342 74.1681 58.5139 74.2092L58.5368 74.2209L58.5393 74.2223C58.8078 74.3604 59.0782 74.4955 59.3504 74.6275L59.3665 74.6353L59.3737 74.6388C59.8379 74.8608 60.3422 75.0927 60.8794 75.3173C62.2909 75.9074 63.9293 76.4473 65.6636 76.6253L65.668 76.6257L65.7283 76.6317L65.768 76.6355C65.871 76.6452 65.9744 76.6536 66.0781 76.6607L66.1163 76.6632L66.1233 76.6636C66.2331 76.671 66.3491 76.6721 66.4608 76.6723L66.4781 76.6723L66.5127 76.6723H66.5213C67.6315 76.6723 68.5251 76.3738 69.2936 75.748C69.3089 75.7356 69.3242 75.723 69.3393 75.7103C69.4412 75.625 69.5409 75.534 69.6386 75.437C69.6742 75.4016 69.7095 75.3655 69.7446 75.3286L69.775 75.2964L69.7925 75.2758L69.8495 75.2094C70.3616 74.6159 70.903 74.083 71.4368 73.5737L71.4451 73.5658L71.4497 73.5613C71.5147 73.4978 71.5789 73.4353 71.6424 73.3736L71.6426 73.3734C71.9384 73.0858 72.219 72.813 72.4939 72.5175L72.4985 72.5125L72.5008 72.51L72.5309 72.4784L72.5541 72.4535L72.5637 72.4431L72.5678 72.4386C72.6314 72.3689 72.6899 72.2992 72.7433 72.2297C73.0252 71.8624 73.1648 71.4969 73.1616 71.1342C73.1578 70.6922 72.9421 70.2544 72.5133 69.8227L72.5021 69.8115L72.5008 69.8102L72.4921 69.8016L67.9224 65.2319L67.7428 65.0522L67.7242 65.0336L67.7123 65.0217L67.7068 65.0163C67.5229 64.8145 67.2576 64.5924 66.936 64.4728C66.9254 64.4688 66.9147 64.465 66.9039 64.4612L66.899 64.4595C66.8229 64.4335 66.7438 64.4132 66.6619 64.4004C66.6159 64.3931 66.569 64.3883 66.5213 64.386L66.5127 64.3856C66.5012 64.3852 66.4897 64.3848 66.4781 64.3847L66.4608 64.3846C65.9516 64.3846 65.5104 64.6941 65.2146 64.9746C65.1953 64.993 65.1765 65.0112 65.1584 65.0292L65.1558 65.0318L65.1541 65.0336L65.1498 65.0379L65.0892 65.0985L64.9467 65.241L64.9401 65.2476L64.9136 65.2741L64.8147 65.373L64.5032 65.6845L64.4186 65.7691L64.2145 65.9732L64.2086 65.9791L64.145 66.0427L64.1207 66.067L62.9627 67.225L62.9354 67.2523L62.8797 67.308L62.7647 67.423L62.4257 67.762L62.1947 67.993C62.1673 68.0203 62.1295 68.0581 62.0815 68.1016C62.0691 68.1128 62.056 68.1244 62.0423 68.1362C61.9856 68.1852 61.9173 68.2391 61.8378 68.2921C61.7824 68.3292 61.7214 68.3658 61.655 68.4C61.5934 68.4318 61.5271 68.4614 61.4563 68.4875C61.4114 68.504 61.3647 68.519 61.3161 68.5322L61.3142 68.5327C61.1825 68.5683 61.0374 68.5901 60.8794 68.5901C60.5938 68.5901 60.3169 68.5209 60.0227 68.3738C60.0054 68.3651 59.9881 68.3543 59.9708 68.3435C59.9535 68.3327 59.9362 68.3218 59.9188 68.3132C59.842 68.2655 59.761 68.2185 59.6767 68.1719C59.489 68.0681 59.2849 67.9659 59.0726 67.8597L59.0622 67.8546L59.0622 67.8546L59.0394 67.8432C58.7104 67.6787 58.3665 67.5057 58.0296 67.2948L58.0091 67.2819L57.9978 67.2748C57.4162 66.907 56.846 66.5156 56.2859 66.0997C55.9239 65.8309 55.5661 65.5518 55.2122 65.2621L55.2088 65.2593L55.1689 65.2266C54.9004 65.006 54.6342 64.7792 54.3701 64.5463C54.3172 64.4997 54.2645 64.4528 54.2118 64.4057C53.2387 63.5355 52.2942 62.5802 51.3712 61.5335C51.2269 61.3699 51.0831 61.204 50.9399 61.0359L50.923 61.0162L50.9225 61.0156L50.9057 60.9958C50.7113 60.7671 50.5178 60.5342 50.3252 60.2971L50.3137 60.2829L50.305 60.2742L50.3038 60.2728C50.1239 60.0442 49.9523 59.8207 49.7887 59.6013C48.8598 58.3558 48.1861 57.2429 47.6741 56.0961C47.6175 55.9692 47.5628 55.8419 47.51 55.7139L47.484 55.6361C47.3283 55.1428 47.1898 54.4159 47.934 53.6717C47.9395 53.6607 47.9485 53.6532 47.9589 53.6447L47.9592 53.6444L47.9636 53.6408C47.9659 53.6389 47.9683 53.6369 47.9706 53.6347C47.9728 53.6328 47.975 53.6307 47.9773 53.6285L48.0008 53.6074C48.0563 53.5575 48.1115 53.5075 48.1664 53.4574L48.2225 53.4061C48.8813 52.802 49.5004 52.1813 50.1468 51.5195L50.1492 51.5171L50.158 51.5086C50.322 51.35 50.4823 51.1879 50.6438 51.0245L50.7123 50.9552L50.778 50.8888C50.8149 50.8516 50.8519 50.8144 50.8891 50.7772L50.8934 50.7729L50.8978 50.7686L50.9177 50.7485L50.9449 50.7205L50.9618 50.7028L50.9837 50.6797C51.1366 50.5164 51.2603 50.3552 51.3545 50.1952L51.3606 50.1848L51.3613 50.1836C51.3682 50.1716 51.375 50.1597 51.3816 50.1478C51.4224 50.0741 51.4569 50.0007 51.4852 49.9275C51.4917 49.9108 51.4978 49.8942 51.5036 49.8775C51.5079 49.8652 51.512 49.8529 51.5159 49.8405L51.5173 49.8363C51.7 49.2581 51.4921 48.689 50.8934 48.0904L50.8891 48.086L50.7639 47.9608L48.5311 45.728L48.5268 45.7236C48.3909 45.5835 48.2551 45.4455 48.1203 45.3086L48.1201 45.3085L48.12 45.3083C47.9816 45.1677 47.8442 45.0282 47.709 44.8886L47.6952 44.8744L47.6695 44.8478C47.1608 44.3229 46.6751 43.8298 46.1657 43.353L46.1514 43.3397L46.1254 43.3137L46.1079 43.2963C45.8301 43.0233 45.3959 42.708 44.8621 42.708L44.8448 42.7081C44.4152 42.7136 43.9779 42.9234 43.5647 43.3057L43.5543 43.3153L43.5468 43.3224L43.5302 43.339L43.4948 43.3743L43.4905 43.3786L42.8804 43.9887L42.7593 44.1098L42.6986 44.1706L42.6636 44.2055L41.1718 45.6973L41.0109 45.8583L40.6089 46.2602L40.5989 46.2702L40.596 46.2732L40.5916 46.2775L40.5658 46.3036C39.8668 47.0151 39.4871 47.845 39.4018 48.8432L39.4017 48.8448L39.4005 48.8592C39.3864 49.0354 39.3775 49.2127 39.374 49.3918C39.3698 49.6096 39.3734 49.83 39.3853 50.0539L39.3871 50.0872L39.388 50.1031C39.3964 50.2472 39.4081 50.3927 39.4233 50.54C39.4269 50.5749 39.4306 50.6099 39.4346 50.645C39.4936 51.1648 39.5949 51.7065 39.741 52.2808C39.7605 52.3576 39.7809 52.4349 39.802 52.5129L39.8088 52.538L39.8097 52.5411C39.9197 52.9439 40.0512 53.3629 40.205 53.8018C40.2258 53.8613 40.2471 53.9213 40.2688 53.9816L40.2711 53.9879C40.3033 54.0774 40.3364 54.1677 40.3705 54.2588L40.3705 54.259L40.371 54.2602C40.7506 55.286 41.1865 56.2914 41.6863 57.2888L41.6892 57.2946C41.7139 57.3439 41.7388 57.3932 41.7639 57.4424L41.8076 57.5282L41.8456 57.6021C41.9092 57.7255 41.9738 57.8489 42.0394 57.9721C42.1349 58.1515 42.2325 58.3307 42.3323 58.5098C42.6667 59.1098 43.0254 59.7087 43.4103 60.3094C43.858 61.0079 44.341 61.7088 44.8621 62.4164C44.9332 62.5131 45.0051 62.6099 45.0777 62.7068C45.3379 63.0541 45.6072 63.4031 45.8861 63.7544L45.8926 63.7627L45.9453 63.829L45.9612 63.8489C46.0741 63.9904 46.1886 64.1323 46.3046 64.2747L46.3124 64.2842C46.4021 64.3942 46.4927 64.5044 46.5843 64.6149L46.5893 64.6209L46.6014 64.6355C48.4189 66.8052 50.4245 68.742 52.601 70.4336C52.7873 70.5784 52.9749 70.7214 53.1637 70.8626C53.7418 71.2949 54.3315 71.7103 54.9325 72.1085L54.9385 72.1125L54.9403 72.1136L55.01 72.1597C55.1866 72.2761 55.3642 72.391 55.5428 72.5045C55.8112 72.675 56.0819 72.8422 56.3547 73.0061L56.4561 73.0668L56.4661 73.0727ZM59.1574 47.753C61.4245 48.1337 63.484 49.2067 65.1282 50.8509C66.7723 52.495 67.8367 54.5545 68.2261 56.8217C68.3212 57.3928 68.8145 57.7908 69.377 57.7908C69.4392 57.7908 69.4944 57.7838 69.5552 57.7761L69.576 57.7735C70.2163 57.6697 70.6403 57.064 70.5365 56.4236C70.0692 53.6805 68.7712 51.1797 66.7896 49.1981C64.808 47.2165 62.3072 45.9185 59.5641 45.4512C58.9237 45.3473 58.3267 45.7714 58.2142 46.4031C58.1017 47.0347 58.517 47.6491 59.1574 47.753Z" fill="#675A54"/>
</g>
<defs>
<clipPath id="clip0">
<rect width="41" height="41" fill="white" transform="translate(37 38)"/>
</clipPath>
</defs>
</svg>
