<svg width="114" height="114" viewBox="0 0 114 114" fill="none" xmlns="http://www.w3.org/2000/svg">
<circle cx="57" cy="57" r="56.5" stroke="#D1D1D1"/>
<ellipse rx="19.2448" ry="18.0553" transform="matrix(0.994399 -0.105694 0.116378 0.993205 60.2382 62.9667)" fill="#7EC95C"/>
<path d="M33.0273 63.7812H35.1948C36.3026 65.9253 38.02 67.8851 40.1991 69.4909V74.8471C40.1998 75.4105 40.4239 75.9506 40.8222 76.349C41.2206 76.7473 41.7607 76.9714 42.3241 76.9721H47.6366C48.2 76.9714 48.7401 76.7473 49.1385 76.349C49.5368 75.9506 49.7609 75.4105 49.7616 74.8471V73.5867C49.7621 73.0937 49.9582 72.6211 50.3068 72.2725C50.6554 71.9239 51.128 71.7279 51.621 71.7273H59.2935C59.7865 71.7279 60.2591 71.9239 60.6077 72.2725C60.9563 72.6211 61.1524 73.0937 61.1529 73.5867V74.8471C61.1536 75.4105 61.3777 75.9506 61.7761 76.349C62.1744 76.7473 62.7145 76.9714 63.2779 76.9721H68.5904C69.1538 76.9715 69.6939 76.7474 70.0923 76.349C70.4907 75.9506 70.7148 75.4105 70.7154 74.8471V68.5651C73.8542 65.8565 75.6981 62.4441 75.9881 58.8359H76.5592C76.7874 58.8361 77.0062 58.9269 77.1675 59.0883C77.3289 59.2496 77.4197 59.4684 77.4199 59.6966V60.5154C77.4206 61.1662 77.6794 61.7901 78.1395 62.2503C78.5997 62.7104 79.2235 62.9692 79.8743 62.9699H82.3008C82.5121 62.9699 82.7148 62.886 82.8643 62.7365C83.0137 62.5871 83.0977 62.3844 83.0977 62.1731C83.0977 61.9617 83.0137 61.759 82.8643 61.6096C82.7148 61.4601 82.5121 61.3762 82.3008 61.3762H79.8743C79.6461 61.3759 79.4273 61.2851 79.266 61.1238C79.1047 60.9624 79.0139 60.7436 79.0137 60.5154V59.6966C79.013 59.0459 78.7542 58.4219 78.294 57.9618C77.8339 57.5016 77.2099 57.2428 76.5592 57.2421H76.0088C75.5922 48.5744 68.4098 41.6515 59.6447 41.6515C59.1366 41.6488 55.256 41.6294 53.7909 41.6425C52.8895 40.1196 51.6092 38.8559 50.0746 37.9745C48.5399 37.0932 46.8033 36.6241 45.0336 36.613C44.9062 36.613 44.7806 36.6436 44.6675 36.7021C44.5543 36.7607 44.4568 36.8455 44.3832 36.9495C44.3096 37.0535 44.262 37.1736 44.2444 37.2998C44.2268 37.426 44.2397 37.5546 44.282 37.6747L44.4645 38.1927C45.1014 39.9969 45.0838 41.9676 44.4148 43.7602C41.1211 45.1933 38.4064 47.2617 36.5232 49.7706H33.0273C32.464 49.7713 31.9238 49.9954 31.5254 50.3937C31.1271 50.7921 30.903 51.3322 30.9023 51.8956V61.656C30.903 62.2194 31.1271 62.7596 31.5254 63.158C31.9238 63.5564 32.4639 63.7805 33.0273 63.7812ZM32.4961 51.8958C32.4961 51.7549 32.5521 51.6198 32.6517 51.5201C32.7513 51.4205 32.8864 51.3645 33.0273 51.3645H36.928C37.0553 51.3645 37.1806 51.334 37.2937 51.2756C37.4067 51.2173 37.5041 51.1326 37.5778 51.0289C39.3508 48.532 42.0354 46.481 45.3412 45.0978C45.5345 45.0169 45.6882 44.863 45.769 44.6696C46.6156 42.645 46.7543 40.3939 46.1625 38.2806C48.012 38.5243 49.7286 39.3737 51.0443 40.6961C51.6762 41.3123 52.2053 42.0258 52.6115 42.8094C52.6817 42.9479 52.7909 43.0628 52.9256 43.14C53.0603 43.2173 53.2146 43.2535 53.3696 43.2442C53.7268 43.223 57.3129 43.2335 59.6403 43.2457C63.5431 43.25 67.2864 44.7945 70.0566 47.5437C72.8267 50.2928 74.3998 54.0243 74.4338 57.9269C74.4026 61.4963 72.6213 64.9215 69.4101 67.5824C69.3199 67.6572 69.2472 67.7509 69.1974 67.857C69.1475 67.963 69.1217 68.0788 69.1217 68.196V74.8472C69.1217 74.9881 69.0657 75.1233 68.9661 75.2229C68.8664 75.3225 68.7313 75.3785 68.5904 75.3785H63.2779C63.137 75.3785 63.0019 75.3225 62.9023 75.2229C62.8026 75.1233 62.7467 74.9881 62.7467 74.8472V73.5868C62.7456 72.6713 62.3815 71.7936 61.7341 71.1463C61.0867 70.4989 60.209 70.1348 59.2935 70.1337H51.6211C50.7056 70.1348 49.8279 70.4989 49.1805 71.1463C48.5332 71.7936 48.169 72.6713 48.168 73.5868V74.8472C48.168 74.9881 48.112 75.1233 48.0124 75.2229C47.9127 75.3225 47.7776 75.3785 47.6367 75.3785H42.3242C42.1833 75.3785 42.0482 75.3225 41.9486 75.2229C41.8489 75.1233 41.793 74.9881 41.793 74.8472V69.0832C41.7929 68.9556 41.7622 68.8299 41.7034 68.7166C41.6446 68.6034 41.5595 68.5059 41.4552 68.4324C39.1833 66.8309 37.4391 64.83 36.4113 62.6456C36.3469 62.5088 36.2449 62.3931 36.1172 62.3121C35.9895 62.2311 35.8414 62.1881 35.6902 62.1881H33.0273C32.8864 62.1881 32.7513 62.1321 32.6517 62.0325C32.5521 61.9328 32.4961 61.7977 32.4961 61.6568V51.8958Z" fill="#675A54"/>
<path d="M42.7748 56.7429C43.5847 56.742 44.3611 56.4199 44.9338 55.8472C45.5064 55.2745 45.8286 54.4981 45.8295 53.6882C45.8295 53.4769 45.7455 53.2742 45.5961 53.1248C45.4466 52.9753 45.2439 52.8914 45.0326 52.8914C44.8212 52.8914 44.6186 52.9753 44.4691 53.1248C44.3197 53.2742 44.2357 53.4769 44.2357 53.6882C44.2357 54.0757 44.0818 54.4473 43.8078 54.7213C43.5338 54.9953 43.1622 55.1492 42.7748 55.1492C42.3873 55.1492 42.0157 54.9953 41.7417 54.7213C41.4678 54.4473 41.3138 54.0757 41.3138 53.6882C41.3138 53.4769 41.2299 53.2742 41.0804 53.1248C40.931 52.9753 40.7283 52.8914 40.517 52.8914C40.3056 52.8914 40.1029 52.9753 39.9535 53.1248C39.804 53.2742 39.7201 53.4769 39.7201 53.6882C39.721 54.4981 40.0431 55.2745 40.6158 55.8472C41.1885 56.4199 41.9649 56.742 42.7748 56.7429Z" fill="#675A54"/>
<path d="M55.6719 48.3928H62.7569C62.9682 48.3928 63.1709 48.3089 63.3204 48.1594C63.4698 48.01 63.5538 47.8073 63.5538 47.5959C63.5538 47.3846 63.4698 47.1819 63.3204 47.0325C63.1709 46.883 62.9682 46.7991 62.7569 46.7991H55.6719C55.4605 46.7991 55.2578 46.883 55.1084 47.0325C54.959 47.1819 54.875 47.3846 54.875 47.5959C54.875 47.8073 54.959 48.01 55.1084 48.1594C55.2578 48.3089 55.4605 48.3928 55.6719 48.3928Z" fill="#675A54"/>
</svg>
