<svg width="114" height="114" viewBox="0 0 114 114" fill="none" xmlns="http://www.w3.org/2000/svg">
<circle cx="57" cy="57" r="56.5" stroke="#D1D1D1"/>
<ellipse cx="51.4101" cy="65.672" rx="13.9112" ry="25.1271" transform="rotate(-25.6258 51.4101 65.672)" fill="#7EC95C"/>
<path fill-rule="evenodd" clip-rule="evenodd" d="M55.4935 42.5952C51.4749 38.5785 43.6108 38.1128 38.0444 38.1128C37.4679 38.1128 37 38.5806 37 39.1571C37 44.7235 37.4637 52.5876 41.4824 56.6063C43.1785 58.3024 45.7789 59.0606 48.3564 59.0606C50.4418 59.0606 52.5134 58.5639 54.0797 57.6661C56.203 62.1109 57.8872 68.7569 57.8872 78.8431C57.8872 79.4196 58.3551 79.8875 58.9316 79.8875C59.5081 79.8875 59.976 79.4196 59.976 78.8453C59.976 73.1808 60.939 66.3752 64.5487 60.7778C66.1164 62.3102 68.8656 63.1903 71.6415 63.1903C74.2189 63.1903 76.8173 62.4341 78.5175 60.7381C82.5341 56.7195 82.9999 48.8554 82.9999 43.2889C83 42.7124 82.5321 42.2445 81.9556 42.2445C76.3892 42.2445 68.5251 42.7082 64.5063 46.7269C61.5441 49.6874 61.443 55.3996 63.2395 58.9415C61.3129 61.7197 60.0318 64.7935 59.2073 67.9065C58.4457 62.9644 57.1879 59.2052 55.7551 56.3243C58.5159 53.1681 58.9303 46.0298 55.4935 42.5952ZM54.649 54.3176C56.2967 51.6511 56.3614 46.4186 54.0168 44.074C50.7731 40.8302 44.1831 40.2684 39.095 40.2078C39.1556 45.2959 39.7175 51.8858 42.9613 55.1296C45.2772 57.4455 50.4091 57.4106 53.1053 55.8215C50.7738 51.8253 48.1643 50.0401 46.7063 49.0432C46.2238 48.7133 45.8666 48.4563 45.6598 48.2516C45.2525 47.8443 45.2525 47.1822 45.6598 46.7749C46.0671 46.3676 46.7293 46.3676 47.1366 46.7749C47.2571 46.8937 47.4571 47.0295 47.7132 47.2034C47.7678 47.2405 47.8249 47.2793 47.8843 47.32L47.8859 47.3211C49.431 48.3785 52.169 50.2523 54.649 54.3176ZM65.7839 59.0463C67.7705 56.5246 70.3928 54.3307 73.8305 52.7153C73.8305 52.7132 73.9997 52.6338 73.9997 52.6338C74.5198 52.3873 74.6597 51.8066 74.4132 51.2844C74.1668 50.7601 73.4608 50.5806 72.9407 50.8228C69.4883 52.4459 66.793 54.5893 64.7002 57.0435C63.739 54.2288 63.9997 50.185 65.9811 48.2036C69.2249 44.9598 75.8147 44.398 80.9029 44.3374C80.8424 49.4276 80.2805 56.0175 77.0366 59.2592C74.4216 61.8743 68.2139 61.492 65.9811 59.2592C65.9136 59.1918 65.8479 59.1207 65.7839 59.0463Z" fill="#675A54"/>
</svg>
