<svg width="114" height="114" viewBox="0 0 114 114" fill="none" xmlns="http://www.w3.org/2000/svg">
<circle cx="57" cy="57" r="56.5" stroke="#D1D1D1"/>
<ellipse rx="16.0326" ry="21.4709" transform="matrix(0.955209 0.295931 -0.285645 0.958335 51.0355 53.9637)" fill="#7EC95C"/>
<g clip-path="url(#clip0)">
<path d="M73.3479 43.0798C67.7068 41.5341 62.0325 39.1274 56.9385 36.1198C56.668 35.9601 56.3322 35.9601 56.0617 36.1198C50.8207 39.2138 45.4531 41.4903 39.6519 43.0798C39.2771 43.1824 39.0173 43.523 39.0173 43.9116V52.7239C39.0173 61.7986 43.2037 67.8054 46.7158 71.2464C50.4968 74.9512 54.901 77 56.5001 77C58.099 77 62.5033 74.9512 66.2843 71.2464C69.7963 67.8055 73.9824 61.7987 73.9824 52.7239V43.9116C73.9824 43.523 73.7226 43.1824 73.3479 43.0798ZM72.2575 52.7238C72.2575 61.1995 68.3529 66.8046 65.077 70.0143C61.3589 73.6574 57.3836 75.275 56.5001 75.275C55.6166 75.275 51.6411 73.6574 47.9229 70.0143C44.6471 66.8045 40.7423 61.1995 40.7423 52.7238V44.5663C46.2899 42.9911 51.4564 40.7929 56.5003 37.8618C61.4182 40.7152 66.8424 43.0227 72.2575 44.566V52.7238Z" fill="#675A54"/>
<path d="M50.6213 54.7398C50.0917 54.2102 49.3874 53.9187 48.6384 53.9187C47.8893 53.9187 47.185 54.2102 46.6552 54.7398C45.5619 55.8333 45.5619 57.6127 46.6552 58.7061L51.7478 63.7986C52.2775 64.3281 52.9817 64.6197 53.7309 64.6197C54.48 64.6197 55.1843 64.3281 55.714 63.7985L66.3452 53.1671C67.4385 52.0734 67.4385 50.2943 66.3451 49.2011C65.8154 48.6715 65.1112 48.38 64.3619 48.38C63.6128 48.38 62.9085 48.6716 62.3788 49.2011L53.7308 57.8491L50.6213 54.7398ZM63.5986 50.4209C63.8024 50.2171 64.0736 50.1049 64.362 50.1049C64.6506 50.1049 64.9216 50.2171 65.1256 50.4209C65.5464 50.8417 65.5464 51.5267 65.1254 51.9476L54.4943 62.5788C54.2905 62.7826 54.0193 62.8948 53.7309 62.8948C53.4424 62.8948 53.1712 62.7826 52.9673 62.5788L47.8749 57.4865C47.4539 57.0655 47.4539 56.3805 47.8747 55.9597C48.0786 55.7559 48.3498 55.6436 48.6383 55.6436C48.9268 55.6436 49.1979 55.7557 49.4017 55.9595L53.1209 59.6788C53.2828 59.8405 53.502 59.9314 53.7308 59.9314C53.9596 59.9314 54.1788 59.8406 54.3405 59.6788L63.5986 50.4209Z" fill="#675A54"/>
</g>
<defs>
<clipPath id="clip0">
<rect width="41" height="41" fill="white" transform="translate(36 36)"/>
</clipPath>
</defs>
</svg>
