<svg width="114" height="114" viewBox="0 0 114 114" fill="none" xmlns="http://www.w3.org/2000/svg">
<circle cx="57" cy="57" r="56.5" stroke="#D1D1D1"/>
<ellipse rx="16.0326" ry="18.0553" transform="matrix(0.946965 -0.321336 0.331498 0.943456 48.1676 60.1862)" fill="#7EC95C"/>
<path d="M77.0884 55.1169C77.9151 54.3113 78.207 53.1288 77.8504 52.0296C77.4929 50.9304 76.5619 50.1457 75.4182 49.9792L65.2487 48.5016C64.8156 48.4385 64.4413 48.1668 64.2479 47.7741L59.7014 38.5591C59.1909 37.5239 58.1548 36.8805 57.0001 36.8805C55.8462 36.8805 54.8101 37.5239 54.2996 38.5591L49.7523 47.7741C49.5588 48.1668 49.1837 48.4385 48.7506 48.5016L38.5811 49.9801C37.4382 50.1457 36.5072 50.9304 36.1498 52.0296C35.7932 53.1288 36.085 54.3113 36.9117 55.1169L44.2697 62.2891C44.5834 62.5952 44.7272 63.0359 44.6532 63.4665L42.9165 73.5947C42.7214 74.7326 43.1798 75.8604 44.1141 76.54C45.0476 77.2203 46.2629 77.3086 47.2864 76.7696L56.3811 71.9876C56.7688 71.7841 57.2313 71.7841 57.6191 71.9876L66.7146 76.7696C67.1586 77.0034 67.6397 77.1186 68.1182 77.1186C68.7397 77.1186 69.3587 76.9243 69.8869 76.54C70.8212 75.8604 71.2796 74.7326 71.0844 73.5947L69.3469 63.4673C69.2729 63.0359 69.4167 62.596 69.7304 62.2899L77.0884 55.1169ZM67.6901 63.7516L69.4268 73.879C69.5143 74.3887 69.3167 74.8756 68.8978 75.1801C68.4782 75.4837 67.9559 75.5207 67.4975 75.2818L58.402 70.499C57.9639 70.2694 57.4811 70.1533 57.0001 70.1533C56.519 70.1533 56.0371 70.2694 55.5981 70.4998L46.5043 75.2818C46.0442 75.5207 45.522 75.4837 45.1032 75.1801C44.6843 74.8756 44.4875 74.3895 44.5742 73.879L46.3108 63.7516C46.4782 62.7743 46.1544 61.7769 45.4446 61.0856L38.0858 53.9126C37.7149 53.551 37.5887 53.0413 37.7494 52.5493C37.9092 52.0565 38.3103 51.7184 38.8225 51.6436L48.9911 50.1659C49.9726 50.0238 50.8212 49.4082 51.2593 48.5184L55.8067 39.3034C56.0354 38.8392 56.482 38.5625 56.9992 38.5625C57.5173 38.5625 57.963 38.8392 58.1926 39.3034L62.74 48.5184C63.1781 49.4082 64.0259 50.0238 65.0073 50.1659L75.1768 51.6436C75.689 51.7184 76.0901 52.0565 76.2499 52.5493C76.4097 53.0413 76.2844 53.551 75.9135 53.9126L68.5555 61.0847C67.8457 61.7769 67.5219 62.7735 67.6901 63.7516Z" fill="#675A54"/>
</svg>
