<svg width="25" height="14" viewBox="0 0 25 14" fill="none" xmlns="http://www.w3.org/2000/svg">
<path d="M23.8446 12.1602C23.7799 12.0527 23.3799 11.1894 21.4551 9.41514C19.44 7.55723 19.7107 7.85892 22.1378 4.6464C23.616 2.68992 24.207 1.49512 24.0221 0.984342C23.8461 0.497462 22.7589 0.625902 22.7589 0.625902L19.1437 0.646811C19.1437 0.646811 18.876 0.610967 18.676 0.728954C18.4821 0.845447 18.3572 1.11428 18.3572 1.11428C18.3572 1.11428 17.7843 2.62868 17.0204 3.91608C15.4098 6.63275 14.7647 6.77613 14.5015 6.60736C13.8894 6.21457 14.0428 5.02724 14.0428 4.18491C14.0428 1.55187 14.4443 0.45415 13.2594 0.170385C12.8654 0.0762949 12.5766 0.013568 11.5706 0.00311351C10.2803 -0.010328 9.18706 0.007594 8.56899 0.307787C8.15695 0.507916 7.83965 0.954472 8.03364 0.979862C8.27275 1.01123 8.81411 1.12473 9.10134 1.51304C9.47278 2.01336 9.45925 3.13946 9.45925 3.13946C9.45925 3.13946 9.67278 6.23847 8.96149 6.62379C8.47275 6.88814 7.80356 6.34899 6.36743 3.88322C5.63207 2.62122 5.07566 1.2248 5.07566 1.2248C5.07566 1.2248 4.96889 0.964927 4.77791 0.826031C4.54633 0.657266 4.22151 0.6035 4.22151 0.6035L0.783816 0.624409C0.783816 0.624409 0.268012 0.639344 0.0785334 0.861876C-0.0898924 1.06051 0.0649992 1.46973 0.0649992 1.46973C0.0649992 1.46973 2.7568 7.72301 5.8035 10.8758C8.59907 13.7657 11.7721 13.576 11.7721 13.576H13.2097C13.2097 13.576 13.6443 13.5282 13.8654 13.2908C14.0699 13.0727 14.0624 12.6635 14.0624 12.6635C14.0624 12.6635 14.0338 10.7473 14.9301 10.4651C15.8128 10.1873 16.9467 12.317 18.1482 13.1369C19.0565 13.7567 19.7467 13.6208 19.7467 13.6208L22.9604 13.576C22.9604 13.576 24.6416 13.473 23.8446 12.1602Z" fill="#6BBD45"/>
</svg>
