<svg width="114" height="114" viewBox="0 0 114 114" fill="none" xmlns="http://www.w3.org/2000/svg">
<circle cx="57" cy="57" r="56.5" stroke="#D1D1D1"/>
<ellipse rx="22.5731" ry="22.5252" transform="matrix(0.768957 -0.639301 0.64753 0.76204 42.81 52.6887)" fill="#7EC95C"/>
<path d="M86.8087 54.3145H85.4526V46.1666C85.4526 42.835 82.7406 40.1346 79.4206 40.1346H78.1698L78.1815 37.1069C78.1815 34.8624 76.3579 33.0388 74.1134 33.0388H37.9448C35.2445 33.0388 33.0351 35.2131 33 37.9135C33 37.9369 33 37.9603 33 37.9837V77.893C33 80.1375 34.8236 81.9611 37.0681 81.9611H79.4323C82.7639 81.9611 85.4643 79.249 85.4643 75.9291V67.7695H86.8203C88.5738 67.7695 90 66.3434 90 64.5899V57.4941C89.9883 55.7406 88.5621 54.3145 86.8087 54.3145ZM37.9448 35.8444H74.1134C74.8031 35.8444 75.3759 36.4055 75.3759 37.0952L75.3642 40.1346H37.9448C36.7642 40.1346 35.8056 39.176 35.8056 37.9953C35.8056 36.8147 36.7642 35.8444 37.9448 35.8444ZM82.647 75.9174C82.647 77.6943 81.1975 79.1438 79.4206 79.1438H37.0564C36.3667 79.1438 35.7939 78.5827 35.7939 77.8813V42.4492C36.4485 42.7648 37.1733 42.9402 37.9448 42.9402H79.4206C81.1975 42.9402 82.647 44.3897 82.647 46.1666V54.3145H73.073C71.3195 54.3145 69.8934 55.7406 69.8934 57.4941V64.5899C69.8934 66.3434 71.3195 67.7695 73.073 67.7695H82.647V75.9174ZM87.1827 64.5899C87.1827 64.8003 87.0191 64.964 86.8087 64.964H73.0847C72.8743 64.964 72.7106 64.8003 72.7106 64.5899V57.4941C72.7106 57.2954 72.8743 57.12 73.0847 57.12H86.8087C87.0074 57.12 87.1827 57.2837 87.1827 57.4941V64.5899Z" fill="#675A54"/>
</svg>
