<svg width="114" height="114" viewBox="0 0 114 114" fill="none" xmlns="http://www.w3.org/2000/svg">
<circle cx="57" cy="57" r="56.5" stroke="#D1D1D1"/>
<ellipse rx="23.9246" ry="23.8739" transform="matrix(0.768957 -0.639301 0.64753 0.76204 51.8168 60.6239)" fill="#7EC95C"/>
<path d="M83.0442 45.9627C80.4608 39.9398 76.0708 35.5595 69.9976 32.9693C66.9622 31.6747 63.782 31.0134 60.4597 31.0134C57.138 31.0134 53.9813 31.6684 50.9492 32.9693C44.9263 35.5526 40.5169 39.9301 37.9289 45.9627C36.6321 48.985 36 52.1513 36 55.4731C36 58.7955 36.6321 61.9881 37.9289 65.011C40.5169 71.0436 44.9269 75.4474 50.9492 78.0313C53.9819 79.3321 57.1379 79.9865 60.4597 79.9865C63.7816 79.9865 66.9622 79.3253 69.9971 78.0313C76.0703 75.441 80.4603 71.0334 83.0442 65.011C84.345 61.9784 85 58.7955 85 55.4731C85 52.1513 84.3456 48.9952 83.0442 45.9627ZM79.1331 66.297C77.2099 69.5953 74.5751 72.2119 71.2567 74.1466C67.9584 76.0698 64.3445 77.0397 60.4603 77.0397C57.5403 77.0397 54.754 76.4773 52.1015 75.3251C49.449 74.1735 47.1588 72.6594 45.243 70.7442C43.3272 68.8284 41.8023 66.5158 40.6621 63.8588C39.5253 61.2114 38.9743 58.3937 38.9743 55.4732C38.9743 51.5884 39.9288 47.9928 41.8412 44.7036C43.7605 41.4025 46.3958 38.783 49.6908 36.854C52.9851 34.9251 56.5756 33.9603 60.4597 33.9603C64.3445 33.9603 67.9578 34.9308 71.2561 36.854C74.5745 38.7887 77.2036 41.4081 79.1326 44.7036C81.0615 47.9985 82.0257 51.5884 82.0257 55.4731C82.0257 59.3579 81.0678 62.978 79.1331 66.297Z" fill="#675A54"/>
<path d="M62.0136 55.259V41.3814C62.0136 40.5509 61.2901 39.8811 60.4595 39.8811C59.6828 39.8811 58.9861 40.5509 58.9861 41.3814V55.4733C58.9861 55.5002 59.0398 55.6076 59.0398 55.6877C58.9861 56.17 59.1204 56.5718 59.4417 56.8936L67.4525 64.9039C67.9885 65.4399 68.9795 65.4399 69.5152 64.9039C70.1312 64.2877 70.0907 63.3938 69.5152 62.8142L62.0136 55.259Z" fill="#675A54"/>
</svg>
