<svg width="20" height="15" viewBox="0 0 20 15" fill="none" xmlns="http://www.w3.org/2000/svg">
<path d="M19.15 1.35623C18.6075 0.368485 18.0188 0.186801 16.82 0.11771C15.6225 0.0345455 12.6112 0 10.0025 0C7.38875 0 4.37625 0.0345456 3.18 0.116431C1.98375 0.186801 1.39375 0.367205 0.84625 1.35623C0.2875 2.34269 0 4.04182 0 7.0332C0 7.03576 0 7.03704 0 7.03704C0 7.0396 0 7.04088 0 7.04088V7.04343C0 10.022 0.2875 11.7339 0.84625 12.7102C1.39375 13.6979 1.9825 13.877 3.17875 13.9602C4.37625 14.0319 7.38875 14.0741 10.0025 14.0741C12.6112 14.0741 15.6225 14.0319 16.8212 13.9615C18.02 13.8783 18.6087 13.6992 19.1513 12.7114C19.715 11.7352 20 10.0233 20 7.04471C20 7.04471 20 7.04088 20 7.03832C20 7.03832 20 7.03576 20 7.03448C20 4.04182 19.715 2.34269 19.15 1.35623ZM7.5 10.8754V3.19865L13.75 7.03704L7.5 10.8754Z" fill="#6BBD45"/>
</svg>
